%TF.GenerationSoftware,KiCad,Pcbnew,(6.0.5)*%
%TF.CreationDate,2022-05-28T22:26:29+02:00*%
%TF.ProjectId,KitchenWeight,4b697463-6865-46e5-9765-696768742e6b,rev?*%
%TF.SameCoordinates,Original*%
%TF.FileFunction,Legend,Top*%
%TF.FilePolarity,Positive*%
%FSLAX46Y46*%
G04 Gerber Fmt 4.6, Leading zero omitted, Abs format (unit mm)*
G04 Created by KiCad (PCBNEW (6.0.5)) date 2022-05-28 22:26:29*
%MOMM*%
%LPD*%
G01*
G04 APERTURE LIST*
%ADD10C,0.100000*%
%ADD11C,0.300000*%
%ADD12C,0.150000*%
%ADD13C,0.120000*%
%ADD14C,2.000000*%
%ADD15R,4.000000X2.000000*%
%ADD16R,1.700000X1.700000*%
%ADD17O,1.700000X1.700000*%
G04 APERTURE END LIST*
D10*
X115851904Y-51858690D02*
X115851904Y-51953928D01*
X116042380Y-51858690D02*
X116042380Y-51953928D01*
X116185238Y-51858690D02*
X116351904Y-52358690D01*
X116518571Y-51858690D01*
X116875714Y-52334880D02*
X116828095Y-52358690D01*
X116732857Y-52358690D01*
X116685238Y-52334880D01*
X116661428Y-52287261D01*
X116661428Y-52096785D01*
X116685238Y-52049166D01*
X116732857Y-52025357D01*
X116828095Y-52025357D01*
X116875714Y-52049166D01*
X116899523Y-52096785D01*
X116899523Y-52144404D01*
X116661428Y-52192023D01*
X117113809Y-52025357D02*
X117113809Y-52358690D01*
X117113809Y-52072976D02*
X117137619Y-52049166D01*
X117185238Y-52025357D01*
X117256666Y-52025357D01*
X117304285Y-52049166D01*
X117328095Y-52096785D01*
X117328095Y-52358690D01*
X117566190Y-52358690D02*
X117566190Y-52025357D01*
X117566190Y-51858690D02*
X117542380Y-51882500D01*
X117566190Y-51906309D01*
X117590000Y-51882500D01*
X117566190Y-51858690D01*
X117566190Y-51906309D01*
X117828095Y-52334880D02*
X117828095Y-52358690D01*
X117804285Y-52406309D01*
X117780476Y-52430119D01*
X115994761Y-52663690D02*
X116161428Y-53163690D01*
X116328095Y-52663690D01*
X116685238Y-53139880D02*
X116637619Y-53163690D01*
X116542380Y-53163690D01*
X116494761Y-53139880D01*
X116470952Y-53092261D01*
X116470952Y-52901785D01*
X116494761Y-52854166D01*
X116542380Y-52830357D01*
X116637619Y-52830357D01*
X116685238Y-52854166D01*
X116709047Y-52901785D01*
X116709047Y-52949404D01*
X116470952Y-52997023D01*
X116923333Y-52830357D02*
X116923333Y-53163690D01*
X116923333Y-52877976D02*
X116947142Y-52854166D01*
X116994761Y-52830357D01*
X117066190Y-52830357D01*
X117113809Y-52854166D01*
X117137619Y-52901785D01*
X117137619Y-53163690D01*
X117375714Y-53163690D02*
X117375714Y-52830357D01*
X117375714Y-52663690D02*
X117351904Y-52687500D01*
X117375714Y-52711309D01*
X117399523Y-52687500D01*
X117375714Y-52663690D01*
X117375714Y-52711309D01*
X117637619Y-53139880D02*
X117637619Y-53163690D01*
X117613809Y-53211309D01*
X117590000Y-53235119D01*
X115923333Y-53468690D02*
X116090000Y-53968690D01*
X116256666Y-53468690D01*
X116613809Y-53944880D02*
X116566190Y-53968690D01*
X116470952Y-53968690D01*
X116423333Y-53944880D01*
X116399523Y-53897261D01*
X116399523Y-53706785D01*
X116423333Y-53659166D01*
X116470952Y-53635357D01*
X116566190Y-53635357D01*
X116613809Y-53659166D01*
X116637619Y-53706785D01*
X116637619Y-53754404D01*
X116399523Y-53802023D01*
X116851904Y-53635357D02*
X116851904Y-53968690D01*
X116851904Y-53682976D02*
X116875714Y-53659166D01*
X116923333Y-53635357D01*
X116994761Y-53635357D01*
X117042380Y-53659166D01*
X117066190Y-53706785D01*
X117066190Y-53968690D01*
X117304285Y-53968690D02*
X117304285Y-53635357D01*
X117304285Y-53468690D02*
X117280476Y-53492500D01*
X117304285Y-53516309D01*
X117328095Y-53492500D01*
X117304285Y-53468690D01*
X117304285Y-53516309D01*
X117518571Y-53468690D02*
X117518571Y-53563928D01*
X117709047Y-53468690D02*
X117709047Y-53563928D01*
X115220952Y-54583214D02*
X115601904Y-54583214D01*
X116482857Y-54297500D02*
X116435238Y-54273690D01*
X116363809Y-54273690D01*
X116292380Y-54297500D01*
X116244761Y-54345119D01*
X116220952Y-54392738D01*
X116197142Y-54487976D01*
X116197142Y-54559404D01*
X116220952Y-54654642D01*
X116244761Y-54702261D01*
X116292380Y-54749880D01*
X116363809Y-54773690D01*
X116411428Y-54773690D01*
X116482857Y-54749880D01*
X116506666Y-54726071D01*
X116506666Y-54559404D01*
X116411428Y-54559404D01*
X116935238Y-54440357D02*
X116935238Y-54773690D01*
X116720952Y-54440357D02*
X116720952Y-54702261D01*
X116744761Y-54749880D01*
X116792380Y-54773690D01*
X116863809Y-54773690D01*
X116911428Y-54749880D01*
X116935238Y-54726071D01*
X117149523Y-54749880D02*
X117197142Y-54773690D01*
X117292380Y-54773690D01*
X117340000Y-54749880D01*
X117363809Y-54702261D01*
X117363809Y-54678452D01*
X117340000Y-54630833D01*
X117292380Y-54607023D01*
X117220952Y-54607023D01*
X117173333Y-54583214D01*
X117149523Y-54535595D01*
X117149523Y-54511785D01*
X117173333Y-54464166D01*
X117220952Y-54440357D01*
X117292380Y-54440357D01*
X117340000Y-54464166D01*
X117506666Y-54440357D02*
X117697142Y-54440357D01*
X117578095Y-54273690D02*
X117578095Y-54702261D01*
X117601904Y-54749880D01*
X117649523Y-54773690D01*
X117697142Y-54773690D01*
X118078095Y-54773690D02*
X118078095Y-54511785D01*
X118054285Y-54464166D01*
X118006666Y-54440357D01*
X117911428Y-54440357D01*
X117863809Y-54464166D01*
X118078095Y-54749880D02*
X118030476Y-54773690D01*
X117911428Y-54773690D01*
X117863809Y-54749880D01*
X117840000Y-54702261D01*
X117840000Y-54654642D01*
X117863809Y-54607023D01*
X117911428Y-54583214D01*
X118030476Y-54583214D01*
X118078095Y-54559404D01*
X118268571Y-54440357D02*
X118387619Y-54773690D01*
X118506666Y-54440357D01*
D11*
X107755714Y-38903571D02*
X107041428Y-38903571D01*
X107041428Y-37403571D01*
X108255714Y-38903571D02*
X108255714Y-37903571D01*
X108255714Y-37403571D02*
X108184285Y-37475000D01*
X108255714Y-37546428D01*
X108327142Y-37475000D01*
X108255714Y-37403571D01*
X108255714Y-37546428D01*
X108827142Y-37903571D02*
X109184285Y-38903571D01*
X109541428Y-37903571D01*
X110684285Y-38832142D02*
X110541428Y-38903571D01*
X110255714Y-38903571D01*
X110112857Y-38832142D01*
X110041428Y-38689285D01*
X110041428Y-38117857D01*
X110112857Y-37975000D01*
X110255714Y-37903571D01*
X110541428Y-37903571D01*
X110684285Y-37975000D01*
X110755714Y-38117857D01*
X110755714Y-38260714D01*
X110041428Y-38403571D01*
X111470000Y-38832142D02*
X111470000Y-38903571D01*
X111398571Y-39046428D01*
X111327142Y-39117857D01*
X106612857Y-41318571D02*
X105898571Y-41318571D01*
X105898571Y-39818571D01*
X107755714Y-41318571D02*
X107755714Y-40532857D01*
X107684285Y-40390000D01*
X107541428Y-40318571D01*
X107255714Y-40318571D01*
X107112857Y-40390000D01*
X107755714Y-41247142D02*
X107612857Y-41318571D01*
X107255714Y-41318571D01*
X107112857Y-41247142D01*
X107041428Y-41104285D01*
X107041428Y-40961428D01*
X107112857Y-40818571D01*
X107255714Y-40747142D01*
X107612857Y-40747142D01*
X107755714Y-40675714D01*
X109112857Y-40318571D02*
X109112857Y-41318571D01*
X108470000Y-40318571D02*
X108470000Y-41104285D01*
X108541428Y-41247142D01*
X108684285Y-41318571D01*
X108898571Y-41318571D01*
X109041428Y-41247142D01*
X109112857Y-41175714D01*
X110470000Y-40318571D02*
X110470000Y-41532857D01*
X110398571Y-41675714D01*
X110327142Y-41747142D01*
X110184285Y-41818571D01*
X109970000Y-41818571D01*
X109827142Y-41747142D01*
X110470000Y-41247142D02*
X110327142Y-41318571D01*
X110041428Y-41318571D01*
X109898571Y-41247142D01*
X109827142Y-41175714D01*
X109755714Y-41032857D01*
X109755714Y-40604285D01*
X109827142Y-40461428D01*
X109898571Y-40390000D01*
X110041428Y-40318571D01*
X110327142Y-40318571D01*
X110470000Y-40390000D01*
X111184285Y-41318571D02*
X111184285Y-39818571D01*
X111827142Y-41318571D02*
X111827142Y-40532857D01*
X111755714Y-40390000D01*
X111612857Y-40318571D01*
X111398571Y-40318571D01*
X111255714Y-40390000D01*
X111184285Y-40461428D01*
X112612857Y-41247142D02*
X112612857Y-41318571D01*
X112541428Y-41461428D01*
X112470000Y-41532857D01*
X107791428Y-43733571D02*
X107077142Y-43733571D01*
X107077142Y-42233571D01*
X108505714Y-43733571D02*
X108362857Y-43662142D01*
X108291428Y-43590714D01*
X108220000Y-43447857D01*
X108220000Y-43019285D01*
X108291428Y-42876428D01*
X108362857Y-42805000D01*
X108505714Y-42733571D01*
X108720000Y-42733571D01*
X108862857Y-42805000D01*
X108934285Y-42876428D01*
X109005714Y-43019285D01*
X109005714Y-43447857D01*
X108934285Y-43590714D01*
X108862857Y-43662142D01*
X108720000Y-43733571D01*
X108505714Y-43733571D01*
X109505714Y-42733571D02*
X109862857Y-43733571D01*
X110220000Y-42733571D01*
X111362857Y-43662142D02*
X111220000Y-43733571D01*
X110934285Y-43733571D01*
X110791428Y-43662142D01*
X110720000Y-43519285D01*
X110720000Y-42947857D01*
X110791428Y-42805000D01*
X110934285Y-42733571D01*
X111220000Y-42733571D01*
X111362857Y-42805000D01*
X111434285Y-42947857D01*
X111434285Y-43090714D01*
X110720000Y-43233571D01*
D12*
X100623809Y-48236190D02*
X100623809Y-48712380D01*
X100290476Y-47712380D02*
X100623809Y-48236190D01*
X100957142Y-47712380D01*
X101766666Y-48712380D02*
X101290476Y-48712380D01*
X101290476Y-47712380D01*
X102004761Y-47712380D02*
X102242857Y-48712380D01*
X102433333Y-47998095D01*
X102623809Y-48712380D01*
X102861904Y-47712380D01*
X100838095Y-45220000D02*
X100742857Y-45172380D01*
X100600000Y-45172380D01*
X100457142Y-45220000D01*
X100361904Y-45315238D01*
X100314285Y-45410476D01*
X100266666Y-45600952D01*
X100266666Y-45743809D01*
X100314285Y-45934285D01*
X100361904Y-46029523D01*
X100457142Y-46124761D01*
X100600000Y-46172380D01*
X100695238Y-46172380D01*
X100838095Y-46124761D01*
X100885714Y-46077142D01*
X100885714Y-45743809D01*
X100695238Y-45743809D01*
X101885714Y-46172380D02*
X101552380Y-45696190D01*
X101314285Y-46172380D02*
X101314285Y-45172380D01*
X101695238Y-45172380D01*
X101790476Y-45220000D01*
X101838095Y-45267619D01*
X101885714Y-45362857D01*
X101885714Y-45505714D01*
X101838095Y-45600952D01*
X101790476Y-45648571D01*
X101695238Y-45696190D01*
X101314285Y-45696190D01*
X102314285Y-46172380D02*
X102314285Y-45172380D01*
X102885714Y-46172380D01*
X102885714Y-45172380D01*
X100266666Y-40092380D02*
X100504761Y-41092380D01*
X100695238Y-40378095D01*
X100885714Y-41092380D01*
X101123809Y-40092380D01*
X101504761Y-41092380D02*
X101504761Y-40092380D01*
X101504761Y-40568571D02*
X102076190Y-40568571D01*
X102076190Y-41092380D02*
X102076190Y-40092380D01*
X102409523Y-40092380D02*
X102980952Y-40092380D01*
X102695238Y-41092380D02*
X102695238Y-40092380D01*
X100766666Y-35488571D02*
X100909523Y-35536190D01*
X100957142Y-35583809D01*
X101004761Y-35679047D01*
X101004761Y-35821904D01*
X100957142Y-35917142D01*
X100909523Y-35964761D01*
X100814285Y-36012380D01*
X100433333Y-36012380D01*
X100433333Y-35012380D01*
X100766666Y-35012380D01*
X100861904Y-35060000D01*
X100909523Y-35107619D01*
X100957142Y-35202857D01*
X100957142Y-35298095D01*
X100909523Y-35393333D01*
X100861904Y-35440952D01*
X100766666Y-35488571D01*
X100433333Y-35488571D01*
X101909523Y-36012380D02*
X101433333Y-36012380D01*
X101433333Y-35012380D01*
X102242857Y-36012380D02*
X102242857Y-35012380D01*
X102814285Y-36012380D02*
X102385714Y-35440952D01*
X102814285Y-35012380D02*
X102242857Y-35583809D01*
X100957142Y-33472380D02*
X100623809Y-32996190D01*
X100385714Y-33472380D02*
X100385714Y-32472380D01*
X100766666Y-32472380D01*
X100861904Y-32520000D01*
X100909523Y-32567619D01*
X100957142Y-32662857D01*
X100957142Y-32805714D01*
X100909523Y-32900952D01*
X100861904Y-32948571D01*
X100766666Y-32996190D01*
X100385714Y-32996190D01*
X101385714Y-32948571D02*
X101719047Y-32948571D01*
X101861904Y-33472380D02*
X101385714Y-33472380D01*
X101385714Y-32472380D01*
X101861904Y-32472380D01*
X102290476Y-33472380D02*
X102290476Y-32472380D01*
X102528571Y-32472380D01*
X102671428Y-32520000D01*
X102766666Y-32615238D01*
X102814285Y-32710476D01*
X102861904Y-32900952D01*
X102861904Y-33043809D01*
X102814285Y-33234285D01*
X102766666Y-33329523D01*
X102671428Y-33424761D01*
X102528571Y-33472380D01*
X102290476Y-33472380D01*
X98039776Y-27118571D02*
X98725491Y-27118571D01*
X98195133Y-28618571D02*
X98382633Y-27118571D01*
X98934419Y-28190000D02*
X99505848Y-28190000D01*
X98766562Y-28618571D02*
X99354062Y-27118571D01*
X99566562Y-28618571D01*
X100537991Y-28618571D02*
X99966562Y-28618571D01*
X100154062Y-27118571D01*
X101050491Y-27261428D02*
X101116562Y-27190000D01*
X101239776Y-27118571D01*
X101525491Y-27118571D01*
X101630848Y-27190000D01*
X101679062Y-27261428D01*
X101718348Y-27404285D01*
X101700491Y-27547142D01*
X101616562Y-27761428D01*
X100823705Y-28618571D01*
X101566562Y-28618571D01*
X102193348Y-27261428D02*
X102259419Y-27190000D01*
X102382633Y-27118571D01*
X102668348Y-27118571D01*
X102773705Y-27190000D01*
X102821919Y-27261428D01*
X102861205Y-27404285D01*
X102843348Y-27547142D01*
X102759419Y-27761428D01*
X101966562Y-28618571D01*
X102709419Y-28618571D01*
X103639776Y-27118571D02*
X103754062Y-27118571D01*
X103859419Y-27190000D01*
X103907633Y-27261428D01*
X103946919Y-27404285D01*
X103968348Y-27690000D01*
X103923705Y-28047142D01*
X103830848Y-28332857D01*
X103755848Y-28475714D01*
X103689776Y-28547142D01*
X103566562Y-28618571D01*
X103452276Y-28618571D01*
X103346919Y-28547142D01*
X103298705Y-28475714D01*
X103259419Y-28332857D01*
X103237991Y-28047142D01*
X103282633Y-27690000D01*
X103375491Y-27404285D01*
X103450491Y-27261428D01*
X103516562Y-27190000D01*
X103639776Y-27118571D01*
X104864776Y-27832857D02*
X105027276Y-27904285D01*
X105075491Y-27975714D01*
X105114776Y-28118571D01*
X105087991Y-28332857D01*
X105012991Y-28475714D01*
X104946919Y-28547142D01*
X104823705Y-28618571D01*
X104366562Y-28618571D01*
X104554062Y-27118571D01*
X104954062Y-27118571D01*
X105059419Y-27190000D01*
X105107633Y-27261428D01*
X105146919Y-27404285D01*
X105129062Y-27547142D01*
X105054062Y-27690000D01*
X104987991Y-27761428D01*
X104864776Y-27832857D01*
X104464776Y-27832857D01*
X106979062Y-27832857D02*
X107141562Y-27904285D01*
X107189776Y-27975714D01*
X107229062Y-28118571D01*
X107202276Y-28332857D01*
X107127276Y-28475714D01*
X107061205Y-28547142D01*
X106937991Y-28618571D01*
X106480848Y-28618571D01*
X106668348Y-27118571D01*
X107068348Y-27118571D01*
X107173705Y-27190000D01*
X107221919Y-27261428D01*
X107261205Y-27404285D01*
X107243348Y-27547142D01*
X107168348Y-27690000D01*
X107102276Y-27761428D01*
X106979062Y-27832857D01*
X106579062Y-27832857D01*
X108366562Y-28618571D02*
X108055848Y-27904285D01*
X107680848Y-28618571D02*
X107868348Y-27118571D01*
X108325491Y-27118571D01*
X108430848Y-27190000D01*
X108479062Y-27261428D01*
X108518348Y-27404285D01*
X108491562Y-27618571D01*
X108416562Y-27761428D01*
X108350491Y-27832857D01*
X108227276Y-27904285D01*
X107770133Y-27904285D01*
X108979062Y-27832857D02*
X109379062Y-27832857D01*
X109452276Y-28618571D02*
X108880848Y-28618571D01*
X109068348Y-27118571D01*
X109639776Y-27118571D01*
X109962991Y-28190000D02*
X110534419Y-28190000D01*
X109795133Y-28618571D02*
X110382633Y-27118571D01*
X110595133Y-28618571D01*
X110995133Y-28618571D02*
X111182633Y-27118571D01*
X111680848Y-28618571D02*
X111273705Y-27761428D01*
X111868348Y-27118571D02*
X111075491Y-27975714D01*
X112611205Y-27118571D02*
X112839776Y-27118571D01*
X112945133Y-27190000D01*
X113041562Y-27332857D01*
X113062991Y-27618571D01*
X113000491Y-28118571D01*
X112907633Y-28404285D01*
X112775491Y-28547142D01*
X112652276Y-28618571D01*
X112423705Y-28618571D01*
X112318348Y-28547142D01*
X112221919Y-28404285D01*
X112200491Y-28118571D01*
X112262991Y-27618571D01*
X112355848Y-27332857D01*
X112487991Y-27190000D01*
X112611205Y-27118571D01*
X113639776Y-27118571D02*
X113487991Y-28332857D01*
X113527276Y-28475714D01*
X113575491Y-28547142D01*
X113680848Y-28618571D01*
X113909419Y-28618571D01*
X114032633Y-28547142D01*
X114098705Y-28475714D01*
X114173705Y-28332857D01*
X114325491Y-27118571D01*
X114725491Y-27118571D02*
X115411205Y-27118571D01*
X114880848Y-28618571D02*
X115068348Y-27118571D01*
X96186666Y-43612380D02*
X96186666Y-44326666D01*
X96139047Y-44469523D01*
X96043809Y-44564761D01*
X95900952Y-44612380D01*
X95805714Y-44612380D01*
X97091428Y-43945714D02*
X97091428Y-44612380D01*
X96853333Y-43564761D02*
X96615238Y-44279047D01*
X97234285Y-44279047D01*
X96186666Y-48692380D02*
X96186666Y-49406666D01*
X96139047Y-49549523D01*
X96043809Y-49644761D01*
X95900952Y-49692380D01*
X95805714Y-49692380D01*
X97139047Y-48692380D02*
X96662857Y-48692380D01*
X96615238Y-49168571D01*
X96662857Y-49120952D01*
X96758095Y-49073333D01*
X96996190Y-49073333D01*
X97091428Y-49120952D01*
X97139047Y-49168571D01*
X97186666Y-49263809D01*
X97186666Y-49501904D01*
X97139047Y-49597142D01*
X97091428Y-49644761D01*
X96996190Y-49692380D01*
X96758095Y-49692380D01*
X96662857Y-49644761D01*
X96615238Y-49597142D01*
X96186666Y-28372380D02*
X96186666Y-29086666D01*
X96139047Y-29229523D01*
X96043809Y-29324761D01*
X95900952Y-29372380D01*
X95805714Y-29372380D01*
X97186666Y-29372380D02*
X96615238Y-29372380D01*
X96900952Y-29372380D02*
X96900952Y-28372380D01*
X96805714Y-28515238D01*
X96710476Y-28610476D01*
X96615238Y-28658095D01*
X96186666Y-38532380D02*
X96186666Y-39246666D01*
X96139047Y-39389523D01*
X96043809Y-39484761D01*
X95900952Y-39532380D01*
X95805714Y-39532380D01*
X96567619Y-38532380D02*
X97186666Y-38532380D01*
X96853333Y-38913333D01*
X96996190Y-38913333D01*
X97091428Y-38960952D01*
X97139047Y-39008571D01*
X97186666Y-39103809D01*
X97186666Y-39341904D01*
X97139047Y-39437142D01*
X97091428Y-39484761D01*
X96996190Y-39532380D01*
X96710476Y-39532380D01*
X96615238Y-39484761D01*
X96567619Y-39437142D01*
X96186666Y-33452380D02*
X96186666Y-34166666D01*
X96139047Y-34309523D01*
X96043809Y-34404761D01*
X95900952Y-34452380D01*
X95805714Y-34452380D01*
X96615238Y-33547619D02*
X96662857Y-33500000D01*
X96758095Y-33452380D01*
X96996190Y-33452380D01*
X97091428Y-33500000D01*
X97139047Y-33547619D01*
X97186666Y-33642857D01*
X97186666Y-33738095D01*
X97139047Y-33880952D01*
X96567619Y-34452380D01*
X97186666Y-34452380D01*
X121158095Y-33472380D02*
X121158095Y-32472380D01*
X121158095Y-32948571D02*
X121729523Y-32948571D01*
X121729523Y-33472380D02*
X121729523Y-32472380D01*
X122729523Y-33472380D02*
X122158095Y-33472380D01*
X122443809Y-33472380D02*
X122443809Y-32472380D01*
X122348571Y-32615238D01*
X122253333Y-32710476D01*
X122158095Y-32758095D01*
D13*
X97215000Y-46405000D02*
X97215000Y-46280000D01*
X95825000Y-46405000D02*
X95911724Y-46405000D01*
X95825000Y-45035000D02*
X96520000Y-45035000D01*
X95825000Y-46405000D02*
X95825000Y-46280000D01*
X97128276Y-46405000D02*
X97215000Y-46405000D01*
X95825000Y-46405000D02*
X97215000Y-46405000D01*
X95825000Y-45720000D02*
X95825000Y-45035000D01*
X97215000Y-51485000D02*
X97215000Y-51360000D01*
X95825000Y-51485000D02*
X95911724Y-51485000D01*
X95825000Y-50115000D02*
X96520000Y-50115000D01*
X95825000Y-51485000D02*
X95825000Y-51360000D01*
X97128276Y-51485000D02*
X97215000Y-51485000D01*
X95825000Y-51485000D02*
X97215000Y-51485000D01*
X95825000Y-50800000D02*
X95825000Y-50115000D01*
X97215000Y-31165000D02*
X97215000Y-31040000D01*
X95825000Y-31165000D02*
X95911724Y-31165000D01*
X95825000Y-29795000D02*
X96520000Y-29795000D01*
X95825000Y-31165000D02*
X95825000Y-31040000D01*
X97128276Y-31165000D02*
X97215000Y-31165000D01*
X95825000Y-31165000D02*
X97215000Y-31165000D01*
X95825000Y-30480000D02*
X95825000Y-29795000D01*
X97215000Y-41325000D02*
X97215000Y-41200000D01*
X95825000Y-41325000D02*
X95911724Y-41325000D01*
X95825000Y-39955000D02*
X96520000Y-39955000D01*
X95825000Y-41325000D02*
X95825000Y-41200000D01*
X97128276Y-41325000D02*
X97215000Y-41325000D01*
X95825000Y-41325000D02*
X97215000Y-41325000D01*
X95825000Y-40640000D02*
X95825000Y-39955000D01*
X97215000Y-36245000D02*
X97215000Y-36120000D01*
X95825000Y-36245000D02*
X95911724Y-36245000D01*
X95825000Y-34875000D02*
X96520000Y-34875000D01*
X95825000Y-36245000D02*
X95825000Y-36120000D01*
X97128276Y-36245000D02*
X97215000Y-36245000D01*
X95825000Y-36245000D02*
X97215000Y-36245000D01*
X95825000Y-35560000D02*
X95825000Y-34875000D01*
X120422929Y-43560000D02*
X120820000Y-43560000D01*
X129480000Y-43560000D02*
X123480000Y-43560000D01*
X123480000Y-47050000D02*
X123480000Y-34230000D01*
X123480000Y-34230000D02*
X120820000Y-34230000D01*
X120820000Y-39370000D02*
X123480000Y-39370000D01*
X120422929Y-41020000D02*
X120820000Y-41020000D01*
X120820000Y-44450000D02*
X123480000Y-44450000D01*
X120422929Y-40260000D02*
X120820000Y-40260000D01*
X118110000Y-34290000D02*
X119380000Y-34290000D01*
X129480000Y-38480000D02*
X123480000Y-38480000D01*
X120820000Y-36830000D02*
X123480000Y-36830000D01*
X120820000Y-41910000D02*
X123480000Y-41910000D01*
X120490000Y-35940000D02*
X120820000Y-35940000D01*
X120820000Y-34230000D02*
X120820000Y-47050000D01*
X120422929Y-46100000D02*
X120820000Y-46100000D01*
X129480000Y-40260000D02*
X129480000Y-41020000D01*
X123480000Y-37720000D02*
X129480000Y-37720000D01*
X120422929Y-45340000D02*
X120820000Y-45340000D01*
X123480000Y-40260000D02*
X129480000Y-40260000D01*
X129480000Y-41020000D02*
X123480000Y-41020000D01*
X120820000Y-47050000D02*
X123480000Y-47050000D01*
X123480000Y-35600000D02*
X129480000Y-35600000D01*
X129480000Y-35940000D02*
X123480000Y-35940000D01*
X123480000Y-35240000D02*
X129480000Y-35240000D01*
X120422929Y-37720000D02*
X120820000Y-37720000D01*
X123480000Y-35360000D02*
X129480000Y-35360000D01*
X129480000Y-37720000D02*
X129480000Y-38480000D01*
X123480000Y-35480000D02*
X129480000Y-35480000D01*
X120490000Y-35180000D02*
X120820000Y-35180000D01*
X123480000Y-35840000D02*
X129480000Y-35840000D01*
X120422929Y-38480000D02*
X120820000Y-38480000D01*
X123480000Y-35720000D02*
X129480000Y-35720000D01*
X123480000Y-42800000D02*
X129480000Y-42800000D01*
X129480000Y-42800000D02*
X129480000Y-43560000D01*
X129480000Y-35180000D02*
X129480000Y-35940000D01*
X123480000Y-35180000D02*
X129480000Y-35180000D01*
X123480000Y-45340000D02*
X129480000Y-45340000D01*
X118110000Y-35560000D02*
X118110000Y-34290000D01*
X129480000Y-46100000D02*
X123480000Y-46100000D01*
X120422929Y-42800000D02*
X120820000Y-42800000D01*
X129480000Y-45340000D02*
X129480000Y-46100000D01*
%LPC*%
D14*
X91440000Y-53340000D03*
X91440000Y-53340000D03*
X121920000Y-53340000D03*
X121920000Y-53340000D03*
X121920000Y-27940000D03*
X121920000Y-27940000D03*
X91440000Y-27940000D03*
X91440000Y-27940000D03*
D15*
X96520000Y-45720000D03*
X96520000Y-50800000D03*
X96520000Y-30480000D03*
X96520000Y-40640000D03*
X96520000Y-35560000D03*
D16*
X119380000Y-35560000D03*
D17*
X119380000Y-38100000D03*
X119380000Y-40640000D03*
X119380000Y-43180000D03*
X119380000Y-45720000D03*
M02*
